<svg xmlns="http://www.w3.org/2000/svg" viewBox="0 0 512 512" role="img" aria-labelledby="title desc">
  <title id="title">우리동네 벌레예보 아이콘</title>
  <desc id="desc">초록색 배경 위에 벌레와 위치 표시가 결합된 앱 아이콘</desc>
  <rect width="512" height="512" rx="108" fill="#1c584a"/>
  <circle cx="256" cy="256" r="174" fill="#f7faf5"/>
  <path fill="#e7b949" d="M256 82c70 0 127 57 127 127 0 89-127 221-127 221S129 298 129 209c0-70 57-127 127-127Z"/>
  <circle cx="256" cy="210" r="82" fill="#f7faf5"/>
  <path fill="#1c584a" d="M222 203c0-28 15-49 34-49s34 21 34 49v61c0 28-15 49-34 49s-34-21-34-49v-61Zm34-83c20 0 36 12 36 27 0 4-4 8-8 8h-56c-4 0-8-4-8-8 0-15 16-27 36-27Zm-68 83h28v20h-28c-6 0-10-4-10-10s4-10 10-10Zm108 0h28c6 0 10 4 10 10s-4 10-10 10h-28v-20Zm-101 49h23v20h-34c-5 0-9-3-10-8l-8-31c-1-5 2-11 7-12 6-1 11 2 13 7l9 24Zm99 0h23l9-24c2-5 7-8 13-7 5 1 8 7 7 12l-8 31c-1 5-5 8-10 8h-34v-20Zm-85-82 15 15-23 23-15-15 23-23Zm94 0 23 23-15 15-23-23 15-15Z"/>
</svg>
